<?xml version="1.0" encoding="UTF-8"?>
<svg width="700pt" height="700pt" version="1.1" viewBox="0 0 700 700" xmlns="http://www.w3.org/2000/svg">
 <g>
  <path d="m508.73 487.9h-317.45l-40.074-300.65h397.6zm-302.05-17.5h286.65l35-265.65h-357.18z"/>
  <path d="m102.2 187.25h495.43v17.5h-495.43z"/>
  <path d="m294 290.32h17.5v151.02h-17.5z"/>
  <path d="m388.5 290.32h17.5v151.02h-17.5z"/>
  <path d="m229.14 241.77 81.555-126.86 14.699 9.4492-81.555 126.86z"/>
  <path d="m256.36 230.53c8.2695 10.832 6.1914 26.316-4.6406 34.586-10.832 8.2695-26.316 6.1914-34.586-4.6406-8.2695-10.832-6.1914-26.316 4.6406-34.586 10.828-8.2695 26.316-6.1914 34.586 4.6406"/>
  <path d="m374.94 124.65 14.766-9.3906 81.059 127.43-14.766 9.3906z"/>
  <path d="m478.13 227.74c10.832 8.2695 12.91 23.754 4.6406 34.586-8.2695 10.832-23.754 12.91-34.586 4.6406-10.832-8.2695-12.91-23.754-4.6406-34.586 8.2695-10.832 23.754-12.91 34.586-4.6406"/>
 </g>
</svg>
