<svg width="31" height="33" viewBox="0 0 31 33" fill="none" xmlns="http://www.w3.org/2000/svg">
<path d="M2.67962 6.74143L6.71395 2.70711C7.10447 2.31658 7.73763 2.31658 8.12816 2.70711L13.4508 8.02974C13.8413 8.42026 13.8413 9.05343 13.4508 9.44395L9.94818 12.9466C9.4448 13.4499 9.32 14.219 9.63837 14.8557C11.4788 18.5366 14.4634 21.5212 18.1443 23.3616C18.781 23.68 19.5501 23.5552 20.0534 23.0518L23.5561 19.5492C23.9466 19.1587 24.5797 19.1587 24.9703 19.5492L30.2929 24.8718C30.6834 25.2624 30.6834 25.8955 30.2929 26.2861L26.2586 30.3204C24.1472 32.4317 20.8047 32.6693 18.4159 30.8777L11.7338 25.8662C9.9903 24.5585 8.44148 23.0097 7.13383 21.2662L2.12226 14.5841C0.330722 12.1953 0.568268 8.85278 2.67962 6.74143Z" fill="#fff"/>
</svg>
